<svg viewBox="0 0 33.9587 33.9589" xmlns="http://www.w3.org/2000/svg" xmlns:xlink="http://www.w3.org/1999/xlink" width="33.958740" height="33.958862" fill="none" customFrame="#000000">
	<defs>
		<linearGradient id="paint_linear_3" x1="31.3555794" x2="2.61288071" y1="2.61357784" y2="31.3562775" gradientUnits="userSpaceOnUse">
			<stop stop-color="rgb(96,252,124)" offset="0" stop-opacity="1" />
			<stop stop-color="rgb(74,177,97)" offset="1" stop-opacity="1" />
		</linearGradient>
	</defs>
	<g id="Group">
		<path id="Vector" d="M0 25.0859L0 8.88457C0 3.99515 3.99515 0 8.88457 0L25.0742 0C29.9637 0 33.9588 3.99515 33.9588 8.88457L33.9588 25.0742C33.9588 29.9637 29.9637 33.9588 25.0742 33.9588L8.88457 33.9588C4.00677 33.9704 0 29.9637 0 25.0859Z" fill="url(#paint_linear_3)" fill-rule="nonzero" />
		<path id="Vector" d="M7.80469 26.5957L9.22158 21.3114C8.42022 19.8597 8.00212 18.2453 8.00212 16.5962C8.00212 11.219 12.3805 6.84058 17.7577 6.84058C23.1349 6.84058 27.5133 11.219 27.5133 16.5962C27.5133 21.9734 23.1349 26.3518 17.7577 26.3518C16.1434 26.3518 14.5523 25.9453 13.1238 25.1672L7.80469 26.5957ZM13.3793 23.1928L13.7161 23.3903C14.9472 24.1219 16.3408 24.5052 17.7577 24.5052C22.1245 24.5052 25.6667 20.9514 25.6667 16.5962C25.6667 12.241 22.1129 8.68717 17.7577 8.68717C13.3909 8.68717 9.84872 12.241 9.84872 16.5962C9.84872 18.0363 10.2436 19.4532 11.0101 20.6959L11.2192 21.0327L10.4294 23.9826L13.3793 23.1928Z" fill="rgb(255,255,255)" fill-rule="nonzero" />
		<path id="Vector" d="M21.3806 17.955C20.9741 17.7111 20.4515 17.444 19.9869 17.6414C19.6269 17.7924 19.3946 18.3615 19.1623 18.6518C19.0462 18.8028 18.8952 18.826 18.7094 18.7447C17.3506 18.1989 16.3053 17.293 15.5504 16.0387C15.4227 15.8413 15.4459 15.6903 15.5969 15.5045C15.8292 15.2373 16.1079 14.9354 16.166 14.5753C16.224 14.2153 16.0614 13.7972 15.9105 13.472C15.7246 13.0656 15.504 12.4732 15.0975 12.241C14.7142 12.0319 14.2265 12.1481 13.8897 12.4152C13.309 12.8913 13.0302 13.623 13.0419 14.3663C13.0419 14.5753 13.0651 14.7844 13.1231 14.9818C13.2393 15.4696 13.4599 15.9226 13.7155 16.3523C13.9013 16.6775 14.1103 16.991 14.331 17.293C15.0627 18.2802 15.9685 19.1396 17.0138 19.79C17.5364 20.1151 18.1055 20.3939 18.6862 20.5913C19.3365 20.812 19.9289 21.0326 20.6373 20.8933C21.3806 20.7539 22.1122 20.2894 22.4026 19.5809C22.4955 19.3719 22.5303 19.128 22.4839 18.9073C22.3794 18.4544 21.7522 18.1756 21.3806 17.955Z" fill="rgb(255,255,255)" fill-rule="evenodd" />
	</g>
</svg>
